<svg width="130" height="30" viewBox="0 0 130 30" fill="none" xmlns="http://www.w3.org/2000/svg">
<path d="M32.024 22.656C31.448 23.136 30.736 23.512 29.888 23.784C29.056 24.04 28.208 24.168 27.344 24.168C26.032 24.168 24.896 23.92 23.936 23.424C22.992 22.928 22.264 22.208 21.752 21.264C21.24 20.32 20.984 19.2 20.984 17.904C20.984 16.656 21.232 15.56 21.728 14.616C22.224 13.656 22.912 12.912 23.792 12.384C24.672 11.84 25.688 11.568 26.84 11.568C27.96 11.568 28.92 11.816 29.72 12.312C30.52 12.792 31.136 13.488 31.568 14.4C32.016 15.312 32.24 16.392 32.24 17.64V18.096H23.624L23.648 16.488H30.464L29.648 17.304C29.664 16.136 29.432 15.248 28.952 14.64C28.488 14.032 27.808 13.728 26.912 13.728C25.952 13.728 25.208 14.072 24.68 14.76C24.152 15.432 23.888 16.4 23.888 17.664C23.888 19.104 24.184 20.168 24.776 20.856C25.368 21.528 26.264 21.864 27.464 21.864C28.12 21.864 28.76 21.76 29.384 21.552C30.024 21.328 30.616 21.008 31.16 20.592L32.024 22.656ZM37.9529 24L33.2009 11.88H36.2969L39.7049 21.264H39.1049L42.5369 11.88H44.7209L48.1289 21.264H47.5769L50.9849 11.88H53.8889L49.1369 24H46.5209L42.8249 14.232H44.1929L40.5689 24H37.9529ZM60.0564 24.168C57.8484 24.168 56.1044 23.664 54.8244 22.656L55.6644 20.544C56.3044 21.024 57.0004 21.384 57.7524 21.624C58.5044 21.864 59.2884 21.984 60.1044 21.984C60.8404 21.984 61.4004 21.864 61.7844 21.624C62.1684 21.384 62.3604 21.048 62.3604 20.616C62.3604 20.248 62.2244 19.96 61.9524 19.752C61.6804 19.528 61.2164 19.336 60.5604 19.176L58.5444 18.72C57.4404 18.48 56.6084 18.08 56.0484 17.52C55.5044 16.944 55.2324 16.216 55.2324 15.336C55.2324 14.6 55.4404 13.952 55.8564 13.392C56.2724 12.816 56.8564 12.368 57.6084 12.048C58.3604 11.728 59.2324 11.568 60.2244 11.568C61.0884 11.568 61.9204 11.704 62.7204 11.976C63.5204 12.232 64.2164 12.608 64.8084 13.104L63.9444 15.168C63.3364 14.704 62.7124 14.36 62.0724 14.136C61.4484 13.912 60.8244 13.8 60.2004 13.8C59.5124 13.8 58.9764 13.928 58.5924 14.184C58.2084 14.44 58.0164 14.792 58.0164 15.24C58.0164 15.592 58.1284 15.872 58.3524 16.08C58.5924 16.288 59.0004 16.456 59.5764 16.584L61.6164 17.088C62.8164 17.344 63.6884 17.76 64.2324 18.336C64.7924 18.896 65.0724 19.64 65.0724 20.568C65.0724 21.672 64.6244 22.552 63.7284 23.208C62.8324 23.848 61.6084 24.168 60.0564 24.168ZM66.0106 14.136V11.88H74.5546V14.136H66.0106ZM74.5546 21.504V23.88C74.2346 23.992 73.9146 24.064 73.5946 24.096C73.2906 24.144 72.9626 24.168 72.6106 24.168C71.2506 24.168 70.1946 23.784 69.4426 23.016C68.7066 22.248 68.3386 21.144 68.3386 19.704V8.928L71.3386 7.92V19.56C71.3386 20.104 71.4266 20.536 71.6026 20.856C71.7786 21.16 72.0106 21.376 72.2986 21.504C72.6026 21.632 72.9386 21.696 73.3066 21.696C73.5146 21.696 73.7146 21.68 73.9066 21.648C74.0986 21.616 74.3146 21.568 74.5546 21.504ZM76.5924 24V6.336H79.5924V14.328L79.2324 14.352C79.6164 13.44 80.1844 12.752 80.9364 12.288C81.7044 11.808 82.5844 11.568 83.5764 11.568C86.4564 11.568 87.8964 13.232 87.8964 16.56V24H84.8964V16.68C84.8964 15.736 84.7124 15.048 84.3444 14.616C83.9764 14.168 83.4084 13.944 82.6404 13.944C81.7124 13.944 80.9684 14.24 80.4084 14.832C79.8644 15.408 79.5924 16.176 79.5924 17.136V24H76.5924ZM101.446 22.656C100.87 23.136 100.158 23.512 99.3099 23.784C98.4779 24.04 97.6299 24.168 96.7659 24.168C95.4539 24.168 94.3179 23.92 93.3579 23.424C92.4139 22.928 91.6859 22.208 91.1739 21.264C90.6619 20.32 90.4059 19.2 90.4059 17.904C90.4059 16.656 90.6539 15.56 91.1499 14.616C91.6459 13.656 92.3339 12.912 93.2139 12.384C94.0939 11.84 95.1099 11.568 96.2619 11.568C97.3819 11.568 98.3419 11.816 99.1419 12.312C99.9419 12.792 100.558 13.488 100.99 14.4C101.438 15.312 101.662 16.392 101.662 17.64V18.096H93.0459L93.0699 16.488H99.8859L99.0699 17.304C99.0859 16.136 98.8539 15.248 98.3739 14.64C97.9099 14.032 97.2299 13.728 96.3339 13.728C95.3739 13.728 94.6299 14.072 94.1019 14.76C93.5739 15.432 93.3099 16.4 93.3099 17.664C93.3099 19.104 93.6059 20.168 94.1979 20.856C94.7899 21.528 95.6859 21.864 96.8859 21.864C97.5419 21.864 98.1819 21.76 98.8059 21.552C99.4459 21.328 100.038 21.008 100.582 20.592L101.446 22.656ZM102.526 14.136V11.88H111.07V14.136H102.526ZM111.07 21.504V23.88C110.75 23.992 110.43 24.064 110.11 24.096C109.806 24.144 109.478 24.168 109.126 24.168C107.766 24.168 106.71 23.784 105.958 23.016C105.222 22.248 104.854 21.144 104.854 19.704V8.928L107.854 7.92V19.56C107.854 20.104 107.942 20.536 108.118 20.856C108.294 21.16 108.526 21.376 108.814 21.504C109.118 21.632 109.454 21.696 109.822 21.696C110.03 21.696 110.23 21.68 110.422 21.648C110.614 21.616 110.83 21.568 111.07 21.504ZM113.108 24V11.88H116.108V24H113.108ZM112.964 6.384H116.3V9.336H112.964V6.384ZM124.838 24.168C123.574 24.168 122.478 23.92 121.55 23.424C120.638 22.912 119.934 22.192 119.438 21.264C118.958 20.32 118.718 19.216 118.718 17.952C118.718 16.672 118.974 15.552 119.486 14.592C119.998 13.632 120.726 12.888 121.67 12.36C122.614 11.832 123.718 11.568 124.982 11.568C125.83 11.568 126.654 11.704 127.454 11.976C128.27 12.248 128.934 12.624 129.446 13.104L128.582 15.216C128.07 14.8 127.526 14.488 126.95 14.28C126.374 14.056 125.798 13.944 125.222 13.944C124.166 13.944 123.326 14.28 122.702 14.952C122.094 15.624 121.79 16.608 121.79 17.904C121.79 19.184 122.094 20.16 122.702 20.832C123.31 21.504 124.158 21.84 125.246 21.84C125.806 21.84 126.374 21.736 126.95 21.528C127.526 21.304 128.07 20.976 128.582 20.544L129.446 22.656C128.918 23.136 128.238 23.512 127.406 23.784C126.59 24.04 125.734 24.168 124.838 24.168Z" fill="#F0C929"/>
<path d="M0 24.175V9.41602L2.93429 11.0364V22.5108L0 24.175Z" fill="#222F51"/>
<path d="M0 9.41603V6.08759L12.3941 13.1386V16.5547L0 9.41603Z" fill="#222F51"/>
<path d="M18.3064 20.978L15.416 19.3138V7.66422L18.3064 6V20.978Z" fill="#222F51"/>
<path d="M18.3065 20.7152L5.69342 13.5328V16.9488L18.3065 24.0875V20.7152Z" fill="#222F51"/>
</svg>
